<svg width="48" height="57" viewBox="0 0 48 57" fill="none" xmlns="http://www.w3.org/2000/svg">
<path fill-rule="evenodd" clip-rule="evenodd" d="M32.6684 4.7429C32.9073 2.60925 31.3946 0.682598 29.2609 0.443757C27.1273 0.188993 25.2006 1.71758 24.9618 3.85122C24.6752 6.2874 25.0733 9.20126 25.5828 12.1947C26.9999 12.6247 28.3693 13.2456 29.6431 13.9781C31.0124 10.7458 32.35 7.5453 32.6684 4.7429ZM47.6517 14.1055C46.8078 12.131 44.5149 11.2394 42.5405 12.0833C39.9451 13.2138 37.2542 15.4271 34.5473 17.704C35.5663 18.7071 36.5217 19.8377 37.3338 21.0637C40.4069 20.6816 43.3526 20.2198 45.6295 19.2326C47.6039 18.3568 48.5115 16.064 47.6517 14.1055ZM41.1075 3.692C39.3878 2.41818 36.9516 2.76848 35.6778 4.48813C33.7352 7.09946 32.4296 11.0005 31.0124 14.8061C31.4901 15.1245 31.936 15.443 32.3659 15.7774C32.6843 16.0321 33.0187 16.3028 33.3531 16.5735C36.6013 14.1214 39.9769 11.733 41.9195 9.12165C43.1933 7.40199 42.8271 4.96581 41.1075 3.692Z" fill="#53B175"/>
<path d="M33.7194 34.8688C32.5252 36.1585 31.2514 37.3527 29.898 38.5151C28.0032 40.1551 26.0765 41.7474 24.118 43.276C22.0162 41.9862 20.5035 41.3334 20.2488 41.6678C20.0259 41.9703 20.9016 43.0849 22.478 44.5339C17.1916 48.4668 11.6027 51.9379 5.59986 54.7881C4.66042 55.2339 3.67321 55.5524 2.70193 55.9027C2.44716 55.9982 2.17648 55.9982 2.06502 56.0141C0.536434 56.1893 0.0746744 55.7753 0.138365 54.3741C0.329438 50.0113 1.68287 45.9191 3.08407 41.8429C3.46622 40.7283 3.86429 39.6137 4.27828 38.4991C6.396 39.7889 7.90866 40.4576 8.16343 40.1233C8.43411 39.757 7.16029 38.2921 5.02665 36.461C6.55523 32.5122 8.25896 28.627 10.2652 24.9011C14.2778 27.8787 17.8444 29.8372 18.2425 29.2958C18.6406 28.7544 15.6949 25.8724 11.6346 22.863L11.4594 22.7356C12.16 21.5414 12.8925 20.3472 13.6727 19.1849C14.644 17.72 15.8382 16.3825 17.0165 15.0768C18.5928 13.3412 20.6309 12.7521 22.9079 13.2616C30.2005 14.8857 35.2639 19.0734 37.6523 26.2545C38.13 27.7194 37.7001 29.1525 36.9517 30.4741C36.4422 31.3657 35.8849 32.2097 35.2639 33.0058C31.4106 30.1875 28.0668 28.3723 27.6847 28.8818C27.3185 29.3913 29.9776 32.0186 33.7194 34.8688Z" fill="#F3603F"/>
</svg>
